Coordinates
version=1
nRows=10
nColumns=34
inDegrees=yes

Units are S.I. units (second, meters, Newtons, ...)
If the header above contains a line with 'inDegrees', this indicates whether rotational values are in degrees (yes) or radians (no).

endheader
time	pelvis_tilt	pelvis_list	pelvis_rotation	pelvis_tx	pelvis_ty	pelvis_tz	hip_flexion_r	hip_adduction_r	hip_rotation_r	knee_angle_r	ankle_angle_r	subtalar_angle_r	mtp_angle_r	hip_flexion_l	hip_adduction_l	hip_rotation_l	knee_angle_l	ankle_angle_l	subtalar_angle_l	mtp_angle_l	lumbar_extension	lumbar_bending	lumbar_rotation	arm_flex_r	arm_add_r	arm_rot_r	elbow_flex_r	pro_sup_r	arm_flex_l	arm_add_l	arm_rot_l	elbow_flex_l	pro_sup_l
      2.63333330	      7.76585437	      0.51500976	    -23.92533558	      0.05057991	      1.01425148	     -0.06483075	     -9.24667185	     -7.02167725	      0.20789413	      7.58956378	      8.72386798	     -1.27907845	      0.00000000	     -6.98133685	     -4.27177169	     -0.53476008	     10.35679573	     11.01354903	     -0.80525484	      0.00000000	    -10.48274556	     -1.38231838	      0.05242478	     11.51635069	     -9.11730209	     25.79798610	     22.27699563	    119.74817918	      9.85180427	    -10.21279336	     23.59009997	     23.85296963	    119.74817918
      2.65000000	      7.71866784	      0.44965164	    -23.90470552	      0.05135162	      1.01438746	     -0.06632877	     -9.21936006	     -7.04275022	      0.21431597	      7.62357512	      8.72464596	     -1.28872242	      0.00000000	     -6.97279621	     -4.24923418	     -0.53578969	     10.33314168	     11.02123108	     -0.79945812	      0.00000000	    -10.54510635	     -1.41747852	      0.06350558	     11.50374620	     -9.09609749	     25.80503894	     22.29175149	    119.74817918	      9.78141649	    -10.22463204	     23.59237262	     23.80394788	    119.74817918
      2.66666670	      7.73935740	      0.36615484	    -23.94237172	      0.05245458	      1.01456026	     -0.06736398	     -9.05649909	     -7.08053356	      0.28645616	      8.11623131	      8.69523210	     -1.37089792	      0.00000000	     -7.14817371	     -4.21720510	     -0.52762635	     10.21485411	     11.11338183	     -0.76179114	      0.00000000	    -10.55852567	     -1.48993090	     -0.13857460	     11.51184523	     -8.97225869	     25.84149391	     22.44980481	    119.74817918	      9.58501768	    -10.32249194	     23.58238165	     23.43943630	    119.74817918
      2.68333330	      7.68785922	      0.30259567	    -23.91231923	      0.05314578	      1.01475316	     -0.06883182	     -9.02485882	     -7.09800148	      0.28983659	      8.13679092	      8.70319641	     -1.38261376	      0.00000000	     -7.13231568	     -4.19756846	     -0.52934190	     10.18302082	     11.12067288	     -0.75770496	      0.00000000	    -10.62624924	     -1.52798173	     -0.11613576	     11.50966481	     -8.96419585	     25.84477276	     22.45520763	    119.74817918	      9.53606995	    -10.32976093	     23.58330110	     23.39910261	    119.74817918
      2.70000000	      7.64521996	      0.24230463	    -23.89055600	      0.05380828	      1.01496316	     -0.07010095	     -8.97879251	     -7.11370644	      0.29854262	      8.21467556	      8.70095766	     -1.39936769	      0.00000000	     -7.13752964	     -4.18220163	     -0.52380087	     10.13783178	     11.14003383	     -0.74993528	      0.00000000	    -10.69280017	     -1.56391688	     -0.10565211	     11.50617742	     -8.92698419	     25.85054639	     22.47887049	    119.74817918	      9.46943589	    -10.37828379	     23.57632635	     23.30815611	    119.74817918
      2.71666670	      7.62638543	      0.27651970	    -24.07668871	      0.05406827	      1.01498926	     -0.07091647	     -8.38360680	     -7.25707583	      0.35499737	      9.21998637	      8.92415932	     -1.74864915	      0.00000000	     -7.37042346	     -4.04770817	     -0.45722783	      9.68778512	     11.15895486	     -0.57014718	      0.00000000	    -10.72455065	     -1.74380591	     -0.02788132	     11.55893212	     -8.85418988	     25.84988771	     22.69845972	    119.74817918	      9.69912988	    -10.28142572	     23.40195030	     22.41004208	    119.74817918
      2.73333330	      7.58268937	      0.23485797	    -24.06417989	      0.05472576	      1.01507993	     -0.07192860	     -8.36935856	     -7.26821571	      0.36205018	      9.22212993	      8.91858831	     -1.74263753	      0.00000000	     -7.36136421	     -4.03759019	     -0.46487371	      9.67753615	     11.16285775	     -0.57569805	      0.00000000	    -10.76638399	     -1.77323778	     -0.01301755	     11.55152877	     -8.84510655	     25.85092659	     22.70264355	    119.74817918	      9.66482896	    -10.31584941	     23.39818262	     22.38048451	    119.74799220
      2.75000000	      7.52052723	      0.18031510	    -24.17507916	      0.05505019	      1.01521208	     -0.07225964	     -8.27759516	     -7.24326479	      0.38914299	      9.29390105	      8.84370837	     -1.69243412	      0.00000000	     -7.39594287	     -4.06525076	     -0.50775581	      9.61612880	     11.19731440	     -0.61594967	      0.00000000	    -10.79674796	     -1.86333332	     -0.06139810	     11.58280368	     -8.72390317	     25.85707964	     22.80447523	    119.74817918	      9.58449046	    -10.54712019	     23.35480554	     22.16958330	    119.74398992
      2.76666670	      7.47984028	      0.14434531	    -24.16694038	      0.05566322	      1.01528420	     -0.07317636	     -8.25943890	     -7.25518758	      0.39288277	      9.30099889	      8.83730751	     -1.68805318	      0.00000000	     -7.38986509	     -4.05076292	     -0.51656784	      9.59670310	     11.19944179	     -0.61950497	      0.00000000	    -10.83481226	     -1.86726932	     -0.04548518	     11.59325000	     -8.69371499	     25.86018513	     22.82120499	    119.74817918	      9.54823615	    -10.56943117	     23.35187147	     22.13370570	    119.74383724
      2.78333330	      7.31286022	      0.01613324	    -24.59683415	      0.05545729	      1.01535198	     -0.07323345	     -7.77979697	     -7.17182523	      0.51443241	      9.76450157	      8.78641720	     -1.52458110	      0.00000000	     -7.55655080	     -4.15078933	     -0.83668691	      9.18898124	     11.01598836	     -0.72128975	      0.00000000	    -10.81747816	     -1.77864443	      0.07936522	     11.79972948	     -8.62468330	     25.92995121	     23.00274649	    119.74817918	      9.54950797	    -10.50836143	     23.19474343	     21.37671190	    119.73525758
